 <svg version="1.0" xmlns="http://www.w3.org/2000/svg" width="700.000000pt" height="697.000000pt" viewBox="0 0 700.000000 697.000000" preserveAspectRatio="xMidYMid meet">
<metadata>
Created by potrace 1.12, written by Peter Selinger 2001-2015
</metadata>
<g transform="translate(0.000000,697.000000) scale(0.100000,-0.100000)" fill="#000000" stroke="none">
<path d="M6602 6955 c-71 -16 -290 -121 -1202 -577 -1187 -593 -1502 -757
-2950 -1536 -949 -511 -1679 -910 -2362 -1293 -42 -24 -75 -45 -74 -47 2 -1
518 -77 1147 -167 629 -90 1252 -180 1384 -199 560 -82 536 -78 545 -100 4
-12 19 -104 34 -206 54 -371 129 -888 212 -1465 135 -937 194 -1337 200 -1347
16 -25 32 1 337 552 802 1452 1511 2772 2082 3880 220 426 940 1870 997 2000
39 90 41 100 42 195 1 91 -1 104 -26 145 -82 138 -216 198 -366 165z m-182
-572 c0 -20 -707 -1436 -1023 -2048 -470 -912 -1590 -2985 -1604 -2972 -7 8
-38 207 -143 936 -119 820 -167 1132 -178 1142 -8 8 -340 59 -1212 184 -704
102 -860 126 -860 134 0 18 1496 829 2745 1486 300 159 2253 1144 2268 1145 4
0 7 -3 7 -7z"></path>
</g>
</svg>